<?xml version="1.0" encoding="UTF-8"?>
<!-- Created with Inkscape (http://www.inkscape.org/) -->
<svg width="449.09" height="373.37" version="1.1" viewBox="0 0 118.82 98.788" xmlns="http://www.w3.org/2000/svg">
 <g transform="translate(-47.504 -326.78)">
  <g>
   <path transform="matrix(.26109 0 0 .26109 -109.91 52.717)" d="m879.39 1345.5-81.933 17.415-76.522-34.07-41.882-72.541 8.7556-83.304 56.049-62.248 81.933-17.415 76.522 34.07 41.882 72.541-8.7556 83.304z" fill="#c4317f" stroke-width="2.0267"/>
   <path d="m107.91 339.17-2.7771 0.7147-4.6235 1.156 4.1176 0.42531-0.0832 4.6405 0.42839 3.6918 4.4318-2.0572 5.3542-2.4551 2.0355-2.1606zm-19.755 4.7077-4.8886 8e-3 -13.595 15.099-1.1519 10.96 0.8201 3.0887 5.2948 3.0825 2.2898 0.97409 4.0127 3.5274 1.9932 1.8293-2.1337 3.8685 0.85215 3.235 3.4416 5.1496 2.2862 1.7627 0.48679 7.461 7.9008 3.5176 0.38551-0.30076 3.4659-6.2978 3.4318-3.1672 2.8654-9.0656-7.8321-3.6163-1.9472-3.4985-6.5567-3.2225-4.5181-0.1845-3.1027 0.9462-6.2601-5.426-0.39791-5.2503 5.6994-0.88003 7.7721-6.1247 4.4803-3.2897 5.2648-3.1698-0.87385-5.0188-3.9135-2.1497-5.5712 6.473-3.3688-3.2799 5.9666-4.4225zm40.424 19.077-7.7205 1.5999-5.8601 6.0534-0.10749 8.5085 6.1862 3.5848 3.3424-2.2975 3.7868 2.0474-0.17467 3.0923 3.4938 5.3366 2.7998-3.1094 2.1482-20.435-3.0592-0.77566-3.6804-0.7643z" fill="#070205" stroke="#000" stroke-width=".26458px"/>
   <g>
    <rect x="47.504" y="326.78" width="30.698" height="14.478" stroke-width=".52917"/>
    <path d="m78.201 341.26v2.2943l-7.9375-2.6597 7.2451-1.0962z"/>
    <rect transform="scale(1,-1)" x="57.961" y="-425.57" width="30.698" height="14.478" stroke-width=".52917"/>
    <path d="m88.675 411.04v-2.2627l-7.9375 2.623 7.2451 1.0811z"/>
    <rect transform="scale(-1,1)" x="-166.33" y="344.75" width="30.698" height="14.478" stroke-width=".52917"/>
    <path d="m135.61 359.12v2.2627l8.0765-2.6231-7.372-1.0811z"/>
   </g>
   <g fill="#ffffff" font-family="sans-serif" font-size="10.583px" stroke-width=".26458">
    <text x="62.852417" y="334.58527" style="line-height:1.25" xml:space="preserve"><tspan x="62.852417" y="334.58527" fill="#ffffff" font-size="10.583px" stroke-width=".26458" text-align="center" text-anchor="middle">...</tspan></text>
    <text x="151.02344" y="353.12189" style="line-height:1.25" xml:space="preserve"><tspan x="151.02344" y="353.12189" fill="#ffffff" font-size="10.583px" stroke-width=".26458" text-align="center" text-anchor="middle">...</tspan></text>
    <text x="73.309753" y="418.89526" style="line-height:1.25" xml:space="preserve"><tspan x="73.309753" y="418.89526" fill="#ffffff" font-size="10.583px" stroke-width=".26458" text-align="center" text-anchor="middle">...</tspan></text>
   </g>
  </g>
 </g>
</svg>
