<svg width="167" height="29" viewBox="0 0 167 29" fill="none" xmlns="http://www.w3.org/2000/svg">
<path d="M13 23V25H11V23H3C2.73478 23 2.48043 22.8946 2.29289 22.7071C2.10536 22.5196 2 22.2652 2 22V6C2 5.73479 2.10536 5.48043 2.29289 5.2929C2.48043 5.10536 2.73478 5 3 5H9C9.56759 4.99933 10.1288 5.11976 10.6461 5.35325C11.1635 5.58674 11.625 5.92792 12 6.354C12.375 5.92792 12.8365 5.58674 13.3539 5.35325C13.8712 5.11976 14.4324 4.99933 15 5H21C21.2652 5 21.5196 5.10536 21.7071 5.2929C21.8946 5.48043 22 5.73479 22 6V22C22 22.2652 21.8946 22.5196 21.7071 22.7071C21.5196 22.8946 21.2652 23 21 23H13ZM20 21V7H15C14.4696 7 13.9609 7.21072 13.5858 7.58579C13.2107 7.96086 13 8.46957 13 9V21H20ZM11 21V9C11 8.46957 10.7893 7.96086 10.4142 7.58579C10.0391 7.21072 9.53043 7 9 7H4V21H11Z" fill="#34C5FE"/>
<path d="M39.08 23.144C37.416 23.144 35.904 22.776 34.544 22.04C33.2 21.288 32.144 20.264 31.376 18.968C30.624 17.672 30.248 16.216 30.248 14.6C30.248 12.984 30.624 11.528 31.376 10.232C32.144 8.936 33.2 7.92 34.544 7.184C35.904 6.432 37.416 6.056 39.08 6.056C40.744 6.056 42.24 6.424 43.568 7.16C44.912 7.896 45.968 8.92 46.736 10.232C47.504 11.528 47.888 12.984 47.888 14.6C47.888 16.216 47.504 17.68 46.736 18.992C45.968 20.288 44.912 21.304 43.568 22.04C42.24 22.776 40.744 23.144 39.08 23.144ZM39.08 21.56C40.408 21.56 41.608 21.264 42.68 20.672C43.752 20.064 44.592 19.232 45.2 18.176C45.808 17.104 46.112 15.912 46.112 14.6C46.112 13.288 45.808 12.104 45.2 11.048C44.592 9.976 43.752 9.144 42.68 8.552C41.608 7.944 40.408 7.64 39.08 7.64C37.752 7.64 36.544 7.944 35.456 8.552C34.384 9.144 33.536 9.976 32.912 11.048C32.304 12.104 32 13.288 32 14.6C32 15.912 32.304 17.104 32.912 18.176C33.536 19.232 34.384 20.064 35.456 20.672C36.544 21.264 37.752 21.56 39.08 21.56ZM58.0128 10.28C59.1968 10.28 60.2688 10.552 61.2288 11.096C62.1888 11.624 62.9408 12.376 63.4848 13.352C64.0288 14.328 64.3008 15.44 64.3008 16.688C64.3008 17.952 64.0288 19.072 63.4848 20.048C62.9408 21.024 62.1888 21.784 61.2288 22.328C60.2848 22.856 59.2128 23.12 58.0128 23.12C56.9888 23.12 56.0608 22.912 55.2288 22.496C54.4128 22.064 53.7408 21.44 53.2128 20.624V27.656H51.5088V10.376H53.1408V12.872C53.6528 12.04 54.3248 11.4 55.1568 10.952C56.0048 10.504 56.9568 10.28 58.0128 10.28ZM57.8928 21.608C58.7728 21.608 59.5728 21.408 60.2928 21.008C61.0128 20.592 61.5728 20.008 61.9728 19.256C62.3888 18.504 62.5968 17.648 62.5968 16.688C62.5968 15.728 62.3888 14.88 61.9728 14.144C61.5728 13.392 61.0128 12.808 60.2928 12.392C59.5728 11.976 58.7728 11.768 57.8928 11.768C56.9968 11.768 56.1888 11.976 55.4688 12.392C54.7648 12.808 54.2048 13.392 53.7888 14.144C53.3888 14.88 53.1888 15.728 53.1888 16.688C53.1888 17.648 53.3888 18.504 53.7888 19.256C54.2048 20.008 54.7648 20.592 55.4688 21.008C56.1888 21.408 56.9968 21.608 57.8928 21.608ZM78.7664 17.216H68.2064C68.3024 18.528 68.8064 19.592 69.7184 20.408C70.6304 21.208 71.7824 21.608 73.1744 21.608C73.9584 21.608 74.6784 21.472 75.3344 21.2C75.9904 20.912 76.5584 20.496 77.0384 19.952L77.9984 21.056C77.4384 21.728 76.7344 22.24 75.8864 22.592C75.0544 22.944 74.1344 23.12 73.1264 23.12C71.8304 23.12 70.6784 22.848 69.6704 22.304C68.6784 21.744 67.9024 20.976 67.3424 20C66.7824 19.024 66.5024 17.92 66.5024 16.688C66.5024 15.456 66.7664 14.352 67.2944 13.376C67.8384 12.4 68.5744 11.64 69.5024 11.096C70.4464 10.552 71.5024 10.28 72.6704 10.28C73.8384 10.28 74.8864 10.552 75.8144 11.096C76.7424 11.64 77.4704 12.4 77.9984 13.376C78.5264 14.336 78.7904 15.44 78.7904 16.688L78.7664 17.216ZM72.6704 11.744C71.4544 11.744 70.4304 12.136 69.5984 12.92C68.7824 13.688 68.3184 14.696 68.2064 15.944H77.1584C77.0464 14.696 76.5744 13.688 75.7424 12.92C74.9264 12.136 73.9024 11.744 72.6704 11.744ZM88.6908 10.28C90.2748 10.28 91.5308 10.744 92.4588 11.672C93.4028 12.584 93.8748 13.92 93.8748 15.68V23H92.1708V15.848C92.1708 14.536 91.8428 13.536 91.1868 12.848C90.5308 12.16 89.5948 11.816 88.3788 11.816C87.0188 11.816 85.9388 12.224 85.1388 13.04C84.3548 13.84 83.9628 14.952 83.9628 16.376V23H82.2588V10.376H83.8908V12.704C84.3548 11.936 84.9948 11.344 85.8108 10.928C86.6428 10.496 87.6028 10.28 88.6908 10.28ZM103.493 23.144C102.245 23.144 101.045 22.944 99.893 22.544C98.757 22.144 97.877 21.616 97.253 20.96L97.949 19.592C98.557 20.2 99.365 20.696 100.373 21.08C101.381 21.448 102.421 21.632 103.493 21.632C104.997 21.632 106.125 21.36 106.877 20.816C107.629 20.256 108.005 19.536 108.005 18.656C108.005 17.984 107.797 17.448 107.381 17.048C106.981 16.648 106.485 16.344 105.893 16.136C105.301 15.912 104.477 15.672 103.421 15.416C102.157 15.096 101.149 14.792 100.397 14.504C99.645 14.2 98.997 13.744 98.453 13.136C97.925 12.528 97.661 11.704 97.661 10.664C97.661 9.816 97.885 9.048 98.333 8.36C98.781 7.656 99.469 7.096 100.397 6.68C101.325 6.264 102.477 6.056 103.853 6.056C104.813 6.056 105.749 6.192 106.661 6.464C107.589 6.72 108.389 7.08 109.061 7.544L108.461 8.96C107.757 8.496 107.005 8.152 106.205 7.928C105.405 7.688 104.621 7.568 103.853 7.568C102.381 7.568 101.269 7.856 100.517 8.432C99.781 8.992 99.413 9.72 99.413 10.616C99.413 11.288 99.613 11.832 100.013 12.248C100.429 12.648 100.941 12.96 101.549 13.184C102.173 13.392 103.005 13.624 104.045 13.88C105.277 14.184 106.269 14.488 107.021 14.792C107.789 15.08 108.437 15.528 108.965 16.136C109.493 16.728 109.757 17.536 109.757 18.56C109.757 19.408 109.525 20.184 109.061 20.888C108.613 21.576 107.917 22.128 106.973 22.544C106.029 22.944 104.869 23.144 103.493 23.144ZM119.915 22.232C119.595 22.52 119.195 22.744 118.715 22.904C118.251 23.048 117.763 23.12 117.251 23.12C116.067 23.12 115.155 22.8 114.515 22.16C113.875 21.52 113.555 20.616 113.555 19.448V11.816H111.299V10.376H113.555V7.616H115.259V10.376H119.099V11.816H115.259V19.352C115.259 20.104 115.443 20.68 115.811 21.08C116.195 21.464 116.739 21.656 117.443 21.656C117.795 21.656 118.131 21.6 118.451 21.488C118.787 21.376 119.075 21.216 119.315 21.008L119.915 22.232ZM134.393 10.376V23H132.761V20.696C132.313 21.464 131.697 22.064 130.913 22.496C130.129 22.912 129.233 23.12 128.225 23.12C126.577 23.12 125.273 22.664 124.313 21.752C123.369 20.824 122.897 19.472 122.897 17.696V10.376H124.601V17.528C124.601 18.856 124.929 19.864 125.585 20.552C126.241 21.24 127.177 21.584 128.393 21.584C129.721 21.584 130.769 21.184 131.537 20.384C132.305 19.568 132.689 18.44 132.689 17V10.376H134.393ZM150.685 5.192V23H149.053V20.504C148.541 21.352 147.861 22 147.013 22.448C146.181 22.896 145.237 23.12 144.181 23.12C142.997 23.12 141.925 22.848 140.965 22.304C140.005 21.76 139.253 21 138.709 20.024C138.165 19.048 137.893 17.936 137.893 16.688C137.893 15.44 138.165 14.328 138.709 13.352C139.253 12.376 140.005 11.624 140.965 11.096C141.925 10.552 142.997 10.28 144.181 10.28C145.205 10.28 146.125 10.496 146.941 10.928C147.773 11.344 148.453 11.96 148.981 12.776V5.192H150.685ZM144.325 21.608C145.205 21.608 145.997 21.408 146.701 21.008C147.421 20.592 147.981 20.008 148.381 19.256C148.797 18.504 149.005 17.648 149.005 16.688C149.005 15.728 148.797 14.872 148.381 14.12C147.981 13.368 147.421 12.792 146.701 12.392C145.997 11.976 145.205 11.768 144.325 11.768C143.429 11.768 142.621 11.976 141.901 12.392C141.197 12.792 140.637 13.368 140.221 14.12C139.821 14.872 139.621 15.728 139.621 16.688C139.621 17.648 139.821 18.504 140.221 19.256C140.637 20.008 141.197 20.592 141.901 21.008C142.621 21.408 143.429 21.608 144.325 21.608ZM166.039 10.376L159.727 24.512C159.215 25.696 158.623 26.536 157.951 27.032C157.279 27.528 156.471 27.776 155.527 27.776C154.919 27.776 154.351 27.68 153.823 27.488C153.295 27.296 152.839 27.008 152.455 26.624L153.247 25.352C153.887 25.992 154.655 26.312 155.551 26.312C156.127 26.312 156.615 26.152 157.015 25.832C157.431 25.512 157.815 24.968 158.167 24.2L158.719 22.976L153.079 10.376H154.855L159.607 21.104L164.359 10.376H166.039Z" fill="#34495E"/>
</svg>
