<svg width="76" height="29" viewBox="0 0 76 29" fill="none" xmlns="http://www.w3.org/2000/svg">
<path d="M13 23V25H11V23H3C2.73478 23 2.48043 22.8946 2.29289 22.7071C2.10536 22.5196 2 22.2652 2 22V6C2 5.73479 2.10536 5.48043 2.29289 5.2929C2.48043 5.10536 2.73478 5 3 5H9C9.56759 4.99933 10.1288 5.11976 10.6461 5.35325C11.1635 5.58674 11.625 5.92792 12 6.354C12.375 5.92792 12.8365 5.58674 13.3539 5.35325C13.8712 5.11976 14.4324 4.99933 15 5H21C21.2652 5 21.5196 5.10536 21.7071 5.2929C21.8946 5.48043 22 5.73479 22 6V22C22 22.2652 21.8946 22.5196 21.7071 22.7071C21.5196 22.8946 21.2652 23 21 23H13ZM20 21V7H15C14.4696 7 13.9609 7.21072 13.5858 7.58579C13.2107 7.96086 13 8.46957 13 9V21H20ZM11 21V9C11 8.46957 10.7893 7.96086 10.4142 7.58579C10.0391 7.21072 9.53043 7 9 7H4V21H11Z" fill="#34C5FE"/>
<path d="M42.368 17.216H31.808C31.904 18.528 32.408 19.592 33.32 20.408C34.232 21.208 35.384 21.608 36.776 21.608C37.56 21.608 38.28 21.472 38.936 21.2C39.592 20.912 40.16 20.496 40.64 19.952L41.6 21.056C41.04 21.728 40.336 22.24 39.488 22.592C38.656 22.944 37.736 23.12 36.728 23.12C35.432 23.12 34.28 22.848 33.272 22.304C32.28 21.744 31.504 20.976 30.944 20C30.384 19.024 30.104 17.92 30.104 16.688C30.104 15.456 30.368 14.352 30.896 13.376C31.44 12.4 32.176 11.64 33.104 11.096C34.048 10.552 35.104 10.28 36.272 10.28C37.44 10.28 38.488 10.552 39.416 11.096C40.344 11.64 41.072 12.4 41.6 13.376C42.128 14.336 42.392 15.44 42.392 16.688L42.368 17.216ZM36.272 11.744C35.056 11.744 34.032 12.136 33.2 12.92C32.384 13.688 31.92 14.696 31.808 15.944H40.76C40.648 14.696 40.176 13.688 39.344 12.92C38.528 12.136 37.504 11.744 36.272 11.744ZM57.3804 5.192V23H55.7484V20.504C55.2364 21.352 54.5564 22 53.7084 22.448C52.8764 22.896 51.9324 23.12 50.8764 23.12C49.6924 23.12 48.6204 22.848 47.6604 22.304C46.7004 21.76 45.9484 21 45.4044 20.024C44.8604 19.048 44.5884 17.936 44.5884 16.688C44.5884 15.44 44.8604 14.328 45.4044 13.352C45.9484 12.376 46.7004 11.624 47.6604 11.096C48.6204 10.552 49.6924 10.28 50.8764 10.28C51.9004 10.28 52.8204 10.496 53.6364 10.928C54.4684 11.344 55.1484 11.96 55.6764 12.776V5.192H57.3804ZM51.0204 21.608C51.9004 21.608 52.6924 21.408 53.3964 21.008C54.1164 20.592 54.6764 20.008 55.0764 19.256C55.4924 18.504 55.7004 17.648 55.7004 16.688C55.7004 15.728 55.4924 14.872 55.0764 14.12C54.6764 13.368 54.1164 12.792 53.3964 12.392C52.6924 11.976 51.9004 11.768 51.0204 11.768C50.1244 11.768 49.3164 11.976 48.5964 12.392C47.8924 12.792 47.3324 13.368 46.9164 14.12C46.5164 14.872 46.3164 15.728 46.3164 16.688C46.3164 17.648 46.5164 18.504 46.9164 19.256C47.3324 20.008 47.8924 20.592 48.5964 21.008C49.3164 21.408 50.1244 21.608 51.0204 21.608ZM73.502 10.376V23H71.87V20.696C71.422 21.464 70.806 22.064 70.022 22.496C69.238 22.912 68.342 23.12 67.334 23.12C65.686 23.12 64.382 22.664 63.422 21.752C62.478 20.824 62.006 19.472 62.006 17.696V10.376H63.71V17.528C63.71 18.856 64.038 19.864 64.694 20.552C65.35 21.24 66.286 21.584 67.502 21.584C68.83 21.584 69.878 21.184 70.646 20.384C71.414 19.568 71.798 18.44 71.798 17V10.376H73.502Z" fill="#34495E"/>
</svg>
